<?xml version="1.0" encoding="UTF-8" standalone="no"?>
<!DOCTYPE svg PUBLIC "-//W3C//DTD SVG 1.1//EN"
 "http://www.w3.org/Graphics/SVG/1.1/DTD/svg11.dtd">
<!-- Generated by graphviz version 2.40.1 (20161225.0304)
 -->
<!-- Title: dependencies Pages: 1 -->
<svg width="5209pt" height="284pt"
 viewBox="0.00 0.00 5209.00 284.00" xmlns="http://www.w3.org/2000/svg" xmlns:xlink="http://www.w3.org/1999/xlink">
<g id="graph0" class="graph" transform="scale(1 1) rotate(0) translate(4 280)">
<title>dependencies</title>
<polygon fill="#ffffff" stroke="transparent" points="-4,4 -4,-280 5205,-280 5205,4 -4,4"/>
<text text-anchor="start" x="2579.5091" y="-42.4" font-family="sans-serif" font-weight="bold" font-size="14.00" fill="#000000">Legend</text>
<polygon fill="#ffffb3" stroke="transparent" points="2366.5,-10 2366.5,-30 2386.5,-30 2386.5,-10 2366.5,-10"/>
<text text-anchor="start" x="2390.129" y="-15.4" font-family="sans-serif" font-size="14.00" fill="#000000"> &#160;Declarations</text>
<polygon fill="#8dd3c7" stroke="transparent" points="2479.5,-10 2479.5,-30 2499.5,-30 2499.5,-10 2479.5,-10"/>
<text text-anchor="start" x="2503.2251" y="-15.4" font-family="sans-serif" font-size="14.00" fill="#000000"> &#160;Module</text>
<polygon fill="#80b1d3" stroke="transparent" points="2565.5,-10 2565.5,-30 2585.5,-30 2585.5,-10 2565.5,-10"/>
<text text-anchor="start" x="2589.2812" y="-15.4" font-family="sans-serif" font-size="14.00" fill="#000000"> &#160;Bootstrap</text>
<polygon fill="#fdb462" stroke="transparent" points="2662.5,-10 2662.5,-30 2682.5,-30 2682.5,-10 2662.5,-10"/>
<text text-anchor="start" x="2686.1732" y="-15.4" font-family="sans-serif" font-size="14.00" fill="#000000"> &#160;Providers</text>
<polygon fill="#fb8072" stroke="transparent" points="2758.5,-10 2758.5,-30 2778.5,-30 2778.5,-10 2758.5,-10"/>
<text text-anchor="start" x="2782.2258" y="-15.4" font-family="sans-serif" font-size="14.00" fill="#000000"> &#160;Exports</text>
<g id="clust1" class="cluster">
<title>cluster_AppModule</title>
<polygon fill="none" stroke="#000000" stroke-dasharray="1,5" points="8,-70 8,-268 5193,-268 5193,-70 8,-70"/>
</g>
<g id="clust2" class="cluster">
<title>cluster_AppModule_declarations</title>
<polygon fill="none" stroke="#000000" points="1718,-78 1718,-130 5185,-130 5185,-78 1718,-78"/>
</g>
<g id="clust25" class="cluster">
<title>cluster_AppModule_imports</title>
<polygon fill="none" stroke="#000000" points="1638,-78 1638,-130 1710,-130 1710,-78 1638,-78"/>
</g>
<g id="clust27" class="cluster">
<title>cluster_AppModule_bootstrap</title>
<polygon fill="none" stroke="#000000" points="2534,-208 2534,-260 2658,-260 2658,-208 2534,-208"/>
</g>
<g id="clust28" class="cluster">
<title>cluster_AppModule_providers</title>
<polygon fill="none" stroke="#000000" points="16,-78 16,-130 1630,-130 1630,-78 16,-78"/>
</g>
<!-- AppComponent -->
<g id="node1" class="node">
<title>AppComponent</title>
<polygon fill="#ffffb3" stroke="#000000" points="5176.9399,-122 5071.0601,-122 5071.0601,-86 5176.9399,-86 5176.9399,-122"/>
<text text-anchor="middle" x="5124" y="-99.8" font-family="Times,serif" font-size="14.00" fill="#000000">AppComponent</text>
</g>
<!-- AppModule -->
<g id="node23" class="node">
<title>AppModule</title>
<polygon fill="#8dd3c7" stroke="#000000" points="2637.6571,-187 2634.6571,-191 2613.6571,-191 2610.6571,-187 2554.3429,-187 2554.3429,-151 2637.6571,-151 2637.6571,-187"/>
<text text-anchor="middle" x="2596" y="-164.8" font-family="Times,serif" font-size="14.00" fill="#000000">AppModule</text>
</g>
<!-- AppComponent&#45;&gt;AppModule -->
<g id="edge1" class="edge">
<title>AppComponent&#45;&gt;AppModule</title>
<path fill="none" stroke="#000000" d="M5124,-122.3802C5124,-146.2785 5124,-185 5124,-185 5124,-185 2647.769,-185 2647.769,-185"/>
<polygon fill="#000000" stroke="#000000" points="2647.769,-181.5001 2637.769,-185 2647.769,-188.5001 2647.769,-181.5001"/>
</g>
<!-- HeaderComponent -->
<g id="node2" class="node">
<title>HeaderComponent</title>
<polygon fill="#ffffb3" stroke="#000000" points="5052.7437,-122 4931.2563,-122 4931.2563,-86 5052.7437,-86 5052.7437,-122"/>
<text text-anchor="middle" x="4992" y="-99.8" font-family="Times,serif" font-size="14.00" fill="#000000">HeaderComponent</text>
</g>
<!-- HeaderComponent&#45;&gt;AppModule -->
<g id="edge2" class="edge">
<title>HeaderComponent&#45;&gt;AppModule</title>
<path fill="none" stroke="#000000" d="M4992,-122.3228C4992,-145.6602 4992,-183 4992,-183 4992,-183 2647.8402,-183 2647.8402,-183"/>
<polygon fill="#000000" stroke="#000000" points="2647.8402,-179.5001 2637.8402,-183 2647.8402,-186.5001 2647.8402,-179.5001"/>
</g>
<!-- HomepageComponent -->
<g id="node3" class="node">
<title>HomepageComponent</title>
<polygon fill="#ffffb3" stroke="#000000" points="4912.9734,-122 4771.0266,-122 4771.0266,-86 4912.9734,-86 4912.9734,-122"/>
<text text-anchor="middle" x="4842" y="-99.8" font-family="Times,serif" font-size="14.00" fill="#000000">HomepageComponent</text>
</g>
<!-- HomepageComponent&#45;&gt;AppModule -->
<g id="edge3" class="edge">
<title>HomepageComponent&#45;&gt;AppModule</title>
<path fill="none" stroke="#000000" d="M4842,-122.2479C4842,-145.0179 4842,-181 4842,-181 4842,-181 2647.8757,-181 2647.8757,-181"/>
<polygon fill="#000000" stroke="#000000" points="2647.8757,-177.5001 2637.8757,-181 2647.8756,-184.5001 2647.8757,-177.5001"/>
</g>
<!-- ErrorComponent -->
<g id="node4" class="node">
<title>ErrorComponent</title>
<polygon fill="#ffffb3" stroke="#000000" points="4753.3669,-122 4642.6331,-122 4642.6331,-86 4753.3669,-86 4753.3669,-122"/>
<text text-anchor="middle" x="4698" y="-99.8" font-family="Times,serif" font-size="14.00" fill="#000000">ErrorComponent</text>
</g>
<!-- ErrorComponent&#45;&gt;AppModule -->
<g id="edge4" class="edge">
<title>ErrorComponent&#45;&gt;AppModule</title>
<path fill="none" stroke="#000000" d="M4698,-122.1554C4698,-144.3519 4698,-179 4698,-179 4698,-179 2647.9882,-179 2647.9882,-179"/>
<polygon fill="#000000" stroke="#000000" points="2647.9883,-175.5001 2637.9882,-179 2647.9882,-182.5001 2647.9883,-175.5001"/>
</g>
<!-- AllMembersComponent -->
<g id="node5" class="node">
<title>AllMembersComponent</title>
<polygon fill="#ffffb3" stroke="#000000" points="4625.0898,-122 4472.9102,-122 4472.9102,-86 4625.0898,-86 4625.0898,-122"/>
<text text-anchor="middle" x="4549" y="-99.8" font-family="Times,serif" font-size="14.00" fill="#000000">AllMembersComponent</text>
</g>
<!-- AllMembersComponent&#45;&gt;AppModule -->
<g id="edge5" class="edge">
<title>AllMembersComponent&#45;&gt;AppModule</title>
<path fill="none" stroke="#000000" d="M4549,-122.0449C4549,-143.6623 4549,-177 4549,-177 4549,-177 2647.6947,-177 2647.6947,-177"/>
<polygon fill="#000000" stroke="#000000" points="2647.6947,-173.5001 2637.6947,-177 2647.6947,-180.5001 2647.6947,-173.5001"/>
</g>
<!-- ActivitiesComponent -->
<g id="node6" class="node">
<title>ActivitiesComponent</title>
<polygon fill="#ffffb3" stroke="#000000" points="4454.766,-122 4319.234,-122 4319.234,-86 4454.766,-86 4454.766,-122"/>
<text text-anchor="middle" x="4387" y="-99.8" font-family="Times,serif" font-size="14.00" fill="#000000">ActivitiesComponent</text>
</g>
<!-- ActivitiesComponent&#45;&gt;AppModule -->
<g id="edge6" class="edge">
<title>ActivitiesComponent&#45;&gt;AppModule</title>
<path fill="none" stroke="#000000" d="M4387,-122.2843C4387,-143.3211 4387,-175 4387,-175 4387,-175 2648.0692,-175 2648.0692,-175"/>
<polygon fill="#000000" stroke="#000000" points="2648.0693,-171.5001 2638.0692,-175 2648.0692,-178.5001 2648.0693,-171.5001"/>
</g>
<!-- ListingByActivitesComponent -->
<g id="node7" class="node">
<title>ListingByActivitesComponent</title>
<polygon fill="#ffffb3" stroke="#000000" points="4300.8808,-122 4113.1192,-122 4113.1192,-86 4300.8808,-86 4300.8808,-122"/>
<text text-anchor="middle" x="4207" y="-99.8" font-family="Times,serif" font-size="14.00" fill="#000000">ListingByActivitesComponent</text>
</g>
<!-- ListingByActivitesComponent&#45;&gt;AppModule -->
<g id="edge7" class="edge">
<title>ListingByActivitesComponent&#45;&gt;AppModule</title>
<path fill="none" stroke="#000000" d="M4207,-122.1289C4207,-142.5724 4207,-173 4207,-173 4207,-173 2647.851,-173 2647.851,-173"/>
<polygon fill="#000000" stroke="#000000" points="2647.851,-169.5001 2637.851,-173 2647.851,-176.5001 2647.851,-169.5001"/>
</g>
<!-- FinancialComponent -->
<g id="node8" class="node">
<title>FinancialComponent</title>
<polygon fill="#ffffb3" stroke="#000000" points="4094.9313,-122 3961.0687,-122 3961.0687,-86 4094.9313,-86 4094.9313,-122"/>
<text text-anchor="middle" x="4028" y="-99.8" font-family="Times,serif" font-size="14.00" fill="#000000">FinancialComponent</text>
</g>
<!-- FinancialComponent&#45;&gt;AppModule -->
<g id="edge8" class="edge">
<title>FinancialComponent&#45;&gt;AppModule</title>
<path fill="none" stroke="#000000" d="M4028,-122.308C4028,-142.1455 4028,-171 4028,-171 4028,-171 2647.6963,-171 2647.6963,-171"/>
<polygon fill="#000000" stroke="#000000" points="2647.6963,-167.5001 2637.6963,-171 2647.6962,-174.5001 2647.6963,-167.5001"/>
</g>
<!-- LoginComponent -->
<g id="node9" class="node">
<title>LoginComponent</title>
<polygon fill="#ffffb3" stroke="#000000" points="3943.2758,-122 3828.7242,-122 3828.7242,-86 3943.2758,-86 3943.2758,-122"/>
<text text-anchor="middle" x="3886" y="-99.8" font-family="Times,serif" font-size="14.00" fill="#000000">LoginComponent</text>
</g>
<!-- LoginComponent&#45;&gt;AppModule -->
<g id="edge9" class="edge">
<title>LoginComponent&#45;&gt;AppModule</title>
<path fill="none" stroke="#000000" d="M3886,-122.1686C3886,-141.0898 3886,-168 3886,-168 3886,-168 2647.8227,-168 2647.8227,-168"/>
<polygon fill="#000000" stroke="#000000" points="2647.8227,-164.5001 2637.8227,-168 2647.8226,-171.5001 2647.8227,-164.5001"/>
</g>
<!-- AddActivitesComponent -->
<g id="node10" class="node">
<title>AddActivitesComponent</title>
<polygon fill="#ffffb3" stroke="#000000" points="3810.9818,-122 3655.0182,-122 3655.0182,-86 3810.9818,-86 3810.9818,-122"/>
<text text-anchor="middle" x="3733" y="-99.8" font-family="Times,serif" font-size="14.00" fill="#000000">AddActivitesComponent</text>
</g>
<!-- AddActivitesComponent&#45;&gt;AppModule -->
<g id="edge10" class="edge">
<title>AddActivitesComponent&#45;&gt;AppModule</title>
<path fill="none" stroke="#000000" d="M3733,-122.2667C3733,-140.5552 3733,-166 3733,-166 3733,-166 2647.8149,-166 2647.8149,-166"/>
<polygon fill="#000000" stroke="#000000" points="2647.8149,-162.5001 2637.8149,-166 2647.8148,-169.5001 2647.8149,-162.5001"/>
</g>
<!-- SideBarComponent -->
<g id="node11" class="node">
<title>SideBarComponent</title>
<polygon fill="#ffffb3" stroke="#000000" points="3637.4327,-122 3510.5673,-122 3510.5673,-86 3637.4327,-86 3637.4327,-122"/>
<text text-anchor="middle" x="3574" y="-99.8" font-family="Times,serif" font-size="14.00" fill="#000000">SideBarComponent</text>
</g>
<!-- SideBarComponent&#45;&gt;AppModule -->
<g id="edge11" class="edge">
<title>SideBarComponent&#45;&gt;AppModule</title>
<path fill="none" stroke="#000000" d="M3574,-122.002C3574,-139.6754 3574,-164 3574,-164 3574,-164 2647.7106,-164 2647.7106,-164"/>
<polygon fill="#000000" stroke="#000000" points="2647.7106,-160.5001 2637.7106,-164 2647.7105,-167.5001 2647.7106,-160.5001"/>
</g>
<!-- PageHeaderComponent -->
<g id="node12" class="node">
<title>PageHeaderComponent</title>
<polygon fill="#ffffb3" stroke="#000000" points="3492.4552,-122 3343.5448,-122 3343.5448,-86 3492.4552,-86 3492.4552,-122"/>
<text text-anchor="middle" x="3418" y="-99.8" font-family="Times,serif" font-size="14.00" fill="#000000">PageHeaderComponent</text>
</g>
<!-- PageHeaderComponent&#45;&gt;AppModule -->
<g id="edge12" class="edge">
<title>PageHeaderComponent&#45;&gt;AppModule</title>
<path fill="none" stroke="#000000" d="M3418,-122.0336C3418,-139.0597 3418,-162 3418,-162 3418,-162 2647.8932,-162 2647.8932,-162"/>
<polygon fill="#000000" stroke="#000000" points="2647.8932,-158.5001 2637.8932,-162 2647.8932,-165.5001 2647.8932,-158.5001"/>
</g>
<!-- DashboardComponent -->
<g id="node13" class="node">
<title>DashboardComponent</title>
<polygon fill="#ffffb3" stroke="#000000" points="3325.9734,-122 3184.0266,-122 3184.0266,-86 3325.9734,-86 3325.9734,-122"/>
<text text-anchor="middle" x="3255" y="-99.8" font-family="Times,serif" font-size="14.00" fill="#000000">DashboardComponent</text>
</g>
<!-- DashboardComponent&#45;&gt;AppModule -->
<g id="edge13" class="edge">
<title>DashboardComponent&#45;&gt;AppModule</title>
<path fill="none" stroke="#000000" d="M3255,-122.027C3255,-138.3976 3255,-160 3255,-160 3255,-160 2647.7233,-160 2647.7233,-160"/>
<polygon fill="#000000" stroke="#000000" points="2647.7234,-156.5001 2637.7233,-160 2647.7233,-163.5001 2647.7234,-156.5001"/>
</g>
<!-- AllEventComponent -->
<g id="node14" class="node">
<title>AllEventComponent</title>
<polygon fill="#ffffb3" stroke="#000000" points="3165.8781,-122 3034.1219,-122 3034.1219,-86 3165.8781,-86 3165.8781,-122"/>
<text text-anchor="middle" x="3100" y="-99.8" font-family="Times,serif" font-size="14.00" fill="#000000">AllEventComponent</text>
</g>
<!-- AllEventComponent&#45;&gt;AppModule -->
<g id="edge14" class="edge">
<title>AllEventComponent&#45;&gt;AppModule</title>
<path fill="none" stroke="#000000" d="M3100,-122.2819C3100,-137.9478 3100,-158 3100,-158 3100,-158 2647.6732,-158 2647.6732,-158"/>
<polygon fill="#000000" stroke="#000000" points="2647.6733,-154.5001 2637.6732,-158 2647.6732,-161.5001 2647.6733,-154.5001"/>
</g>
<!-- EditmemberComponent -->
<g id="node15" class="node">
<title>EditmemberComponent</title>
<polygon fill="#ffffb3" stroke="#000000" points="3016.0379,-122 2865.9621,-122 2865.9621,-86 3016.0379,-86 3016.0379,-122"/>
<text text-anchor="middle" x="2941" y="-99.8" font-family="Times,serif" font-size="14.00" fill="#000000">EditmemberComponent</text>
</g>
<!-- EditmemberComponent&#45;&gt;AppModule -->
<g id="edge15" class="edge">
<title>EditmemberComponent&#45;&gt;AppModule</title>
<path fill="none" stroke="#000000" d="M2941,-122.1871C2941,-137.1824 2941,-156 2941,-156 2941,-156 2647.9589,-156 2647.9589,-156"/>
<polygon fill="#000000" stroke="#000000" points="2647.9589,-152.5001 2637.9589,-156 2647.9588,-159.5001 2647.9589,-152.5001"/>
</g>
<!-- AddFinancialComponent -->
<g id="node16" class="node">
<title>AddFinancialComponent</title>
<polygon fill="#ffffb3" stroke="#000000" points="2847.5379,-122 2690.4621,-122 2690.4621,-86 2847.5379,-86 2847.5379,-122"/>
<text text-anchor="middle" x="2769" y="-99.8" font-family="Times,serif" font-size="14.00" fill="#000000">AddFinancialComponent</text>
</g>
<!-- AddFinancialComponent&#45;&gt;AppModule -->
<g id="edge16" class="edge">
<title>AddFinancialComponent&#45;&gt;AppModule</title>
<path fill="none" stroke="#000000" d="M2769,-122.0511C2769,-136.373 2769,-154 2769,-154 2769,-154 2647.8785,-154 2647.8785,-154"/>
<polygon fill="#000000" stroke="#000000" points="2647.8785,-150.5001 2637.8785,-154 2647.8784,-157.5001 2647.8785,-150.5001"/>
</g>
<!-- AddMemberComponent -->
<g id="node17" class="node">
<title>AddMemberComponent</title>
<polygon fill="#ffffb3" stroke="#000000" points="2672.3641,-122 2519.6359,-122 2519.6359,-86 2672.3641,-86 2672.3641,-122"/>
<text text-anchor="middle" x="2596" y="-99.8" font-family="Times,serif" font-size="14.00" fill="#000000">AddMemberComponent</text>
</g>
<!-- AddMemberComponent&#45;&gt;AppModule -->
<g id="edge17" class="edge">
<title>AddMemberComponent&#45;&gt;AppModule</title>
<path fill="none" stroke="#000000" d="M2596,-122.1061C2596,-122.1061 2596,-140.991 2596,-140.991"/>
<polygon fill="#000000" stroke="#000000" points="2592.5001,-140.9909 2596,-150.991 2599.5001,-140.991 2592.5001,-140.9909"/>
</g>
<!-- AddEventComponent -->
<g id="node18" class="node">
<title>AddEventComponent</title>
<polygon fill="#ffffb3" stroke="#000000" points="2502.0968,-122 2363.9032,-122 2363.9032,-86 2502.0968,-86 2502.0968,-122"/>
<text text-anchor="middle" x="2433" y="-99.8" font-family="Times,serif" font-size="14.00" fill="#000000">AddEventComponent</text>
</g>
<!-- AddEventComponent&#45;&gt;AppModule -->
<g id="edge18" class="edge">
<title>AddEventComponent&#45;&gt;AppModule</title>
<path fill="none" stroke="#000000" d="M2433,-122.0511C2433,-136.373 2433,-154 2433,-154 2433,-154 2544.0234,-154 2544.0234,-154"/>
<polygon fill="#000000" stroke="#000000" points="2544.0235,-157.5001 2554.0234,-154 2544.0234,-150.5001 2544.0235,-157.5001"/>
</g>
<!-- EditEventComponent -->
<g id="node19" class="node">
<title>EditEventComponent</title>
<polygon fill="#ffffb3" stroke="#000000" points="2345.8244,-122 2208.1756,-122 2208.1756,-86 2345.8244,-86 2345.8244,-122"/>
<text text-anchor="middle" x="2277" y="-99.8" font-family="Times,serif" font-size="14.00" fill="#000000">EditEventComponent</text>
</g>
<!-- EditEventComponent&#45;&gt;AppModule -->
<g id="edge19" class="edge">
<title>EditEventComponent&#45;&gt;AppModule</title>
<path fill="none" stroke="#000000" d="M2277,-122.1871C2277,-137.1824 2277,-156 2277,-156 2277,-156 2544.2963,-156 2544.2963,-156"/>
<polygon fill="#000000" stroke="#000000" points="2544.2964,-159.5001 2554.2963,-156 2544.2963,-152.5001 2544.2964,-159.5001"/>
</g>
<!-- DayDetailsComponent -->
<g id="node20" class="node">
<title>DayDetailsComponent</title>
<polygon fill="#ffffb3" stroke="#000000" points="2190.3061,-122 2045.6939,-122 2045.6939,-86 2190.3061,-86 2190.3061,-122"/>
<text text-anchor="middle" x="2118" y="-99.8" font-family="Times,serif" font-size="14.00" fill="#000000">DayDetailsComponent</text>
</g>
<!-- DayDetailsComponent&#45;&gt;AppModule -->
<g id="edge20" class="edge">
<title>DayDetailsComponent&#45;&gt;AppModule</title>
<path fill="none" stroke="#000000" d="M2118,-122.2819C2118,-137.9478 2118,-158 2118,-158 2118,-158 2543.9996,-158 2543.9996,-158"/>
<polygon fill="#000000" stroke="#000000" points="2543.9997,-161.5001 2553.9996,-158 2543.9996,-154.5001 2543.9997,-161.5001"/>
</g>
<!-- CalendarComponent -->
<g id="node21" class="node">
<title>CalendarComponent</title>
<polygon fill="#ffffb3" stroke="#000000" points="2027.8641,-122 1896.1359,-122 1896.1359,-86 2027.8641,-86 2027.8641,-122"/>
<text text-anchor="middle" x="1962" y="-99.8" font-family="Times,serif" font-size="14.00" fill="#000000">CalendarComponent</text>
</g>
<!-- CalendarComponent&#45;&gt;AppModule -->
<g id="edge21" class="edge">
<title>CalendarComponent&#45;&gt;AppModule</title>
<path fill="none" stroke="#000000" d="M1962,-122.027C1962,-138.3976 1962,-160 1962,-160 1962,-160 2543.9105,-160 2543.9105,-160"/>
<polygon fill="#000000" stroke="#000000" points="2543.9105,-163.5001 2553.9105,-160 2543.9105,-156.5001 2543.9105,-163.5001"/>
</g>
<!-- ListingUsersComponent -->
<g id="node22" class="node">
<title>ListingUsersComponent</title>
<polygon fill="#ffffb3" stroke="#000000" points="1878.3725,-122 1725.6275,-122 1725.6275,-86 1878.3725,-86 1878.3725,-122"/>
<text text-anchor="middle" x="1802" y="-99.8" font-family="Times,serif" font-size="14.00" fill="#000000">ListingUsersComponent</text>
</g>
<!-- ListingUsersComponent&#45;&gt;AppModule -->
<g id="edge22" class="edge">
<title>ListingUsersComponent&#45;&gt;AppModule</title>
<path fill="none" stroke="#000000" d="M1802,-122.0336C1802,-139.0597 1802,-162 1802,-162 1802,-162 2544.1508,-162 2544.1508,-162"/>
<polygon fill="#000000" stroke="#000000" points="2544.1508,-165.5001 2554.1508,-162 2544.1507,-158.5001 2544.1508,-165.5001"/>
</g>
<!-- AppComponent  -->
<g id="node25" class="node">
<title>AppComponent </title>
<polygon fill="#80b1d3" stroke="#000000" points="2650.439,-252 2541.561,-252 2541.561,-216 2650.439,-216 2650.439,-252"/>
<text text-anchor="middle" x="2596" y="-229.8" font-family="Times,serif" font-size="14.00" fill="#000000">AppComponent </text>
</g>
<!-- AppModule&#45;&gt;AppComponent  -->
<g id="edge24" class="edge">
<title>AppModule&#45;&gt;AppComponent </title>
<path fill="none" stroke="#000000" stroke-dasharray="1,5" d="M2596,-187.1061C2596,-187.1061 2596,-205.991 2596,-205.991"/>
<polygon fill="#000000" stroke="#000000" points="2592.5001,-205.9909 2596,-215.991 2599.5001,-205.991 2592.5001,-205.9909"/>
</g>
<!-- routing -->
<g id="node24" class="node">
<title>routing</title>
<polygon fill="#8dd3c7" stroke="#000000" points="1702.4435,-122 1699.4435,-126 1678.4435,-126 1675.4435,-122 1645.5565,-122 1645.5565,-86 1702.4435,-86 1702.4435,-122"/>
<text text-anchor="middle" x="1674" y="-99.8" font-family="Times,serif" font-size="14.00" fill="#000000">routing</text>
</g>
<!-- routing&#45;&gt;AppModule -->
<g id="edge23" class="edge">
<title>routing&#45;&gt;AppModule</title>
<path fill="none" stroke="#000000" d="M1674,-122.002C1674,-139.6754 1674,-164 1674,-164 1674,-164 2544.2906,-164 2544.2906,-164"/>
<polygon fill="#000000" stroke="#000000" points="2544.2906,-167.5001 2554.2906,-164 2544.2905,-160.5001 2544.2906,-167.5001"/>
</g>
<!-- ActivitiesService -->
<g id="node26" class="node">
<title>ActivitiesService</title>
<ellipse fill="#fdb462" stroke="#000000" cx="1544" cy="-104" rx="77.5781" ry="18"/>
<text text-anchor="middle" x="1544" y="-99.8" font-family="Times,serif" font-size="14.00" fill="#000000">ActivitiesService</text>
</g>
<!-- ActivitiesService&#45;&gt;AppModule -->
<g id="edge25" class="edge">
<title>ActivitiesService&#45;&gt;AppModule</title>
<path fill="none" stroke="#000000" d="M1544,-122.2667C1544,-140.5552 1544,-166 1544,-166 1544,-166 2544.1112,-166 2544.1112,-166"/>
<polygon fill="#000000" stroke="#000000" points="2544.1112,-169.5001 2554.1112,-166 2544.1111,-162.5001 2544.1112,-169.5001"/>
</g>
<!-- ListingmemberService -->
<g id="node27" class="node">
<title>ListingmemberService</title>
<ellipse fill="#fdb462" stroke="#000000" cx="1349" cy="-104" rx="98.9916" ry="18"/>
<text text-anchor="middle" x="1349" y="-99.8" font-family="Times,serif" font-size="14.00" fill="#000000">ListingmemberService</text>
</g>
<!-- ListingmemberService&#45;&gt;AppModule -->
<g id="edge26" class="edge">
<title>ListingmemberService&#45;&gt;AppModule</title>
<path fill="none" stroke="#000000" d="M1349,-122.1686C1349,-141.0898 1349,-168 1349,-168 1349,-168 2544.1535,-168 2544.1535,-168"/>
<polygon fill="#000000" stroke="#000000" points="2544.1535,-171.5001 2554.1535,-168 2544.1535,-164.5001 2544.1535,-171.5001"/>
</g>
<!-- MembersService -->
<g id="node28" class="node">
<title>MembersService</title>
<ellipse fill="#fdb462" stroke="#000000" cx="1156" cy="-104" rx="76.4208" ry="18"/>
<text text-anchor="middle" x="1156" y="-99.8" font-family="Times,serif" font-size="14.00" fill="#000000">MembersService</text>
</g>
<!-- MembersService&#45;&gt;AppModule -->
<g id="edge27" class="edge">
<title>MembersService&#45;&gt;AppModule</title>
<path fill="none" stroke="#000000" d="M1156,-122.308C1156,-142.1455 1156,-171 1156,-171 1156,-171 2544.0708,-171 2544.0708,-171"/>
<polygon fill="#000000" stroke="#000000" points="2544.0708,-174.5001 2554.0708,-171 2544.0708,-167.5001 2544.0708,-174.5001"/>
</g>
<!-- FinancialService -->
<g id="node29" class="node">
<title>FinancialService</title>
<ellipse fill="#fdb462" stroke="#000000" cx="986" cy="-104" rx="75.8566" ry="18"/>
<text text-anchor="middle" x="986" y="-99.8" font-family="Times,serif" font-size="14.00" fill="#000000">FinancialService</text>
</g>
<!-- FinancialService&#45;&gt;AppModule -->
<g id="edge28" class="edge">
<title>FinancialService&#45;&gt;AppModule</title>
<path fill="none" stroke="#000000" d="M986,-122.1289C986,-142.5724 986,-173 986,-173 986,-173 2544.175,-173 2544.175,-173"/>
<polygon fill="#000000" stroke="#000000" points="2544.175,-176.5001 2554.175,-173 2544.1749,-169.5001 2544.175,-176.5001"/>
</g>
<!-- UsersService -->
<g id="node30" class="node">
<title>UsersService</title>
<ellipse fill="#fdb462" stroke="#000000" cx="830" cy="-104" rx="61.9519" ry="18"/>
<text text-anchor="middle" x="830" y="-99.8" font-family="Times,serif" font-size="14.00" fill="#000000">UsersService</text>
</g>
<!-- UsersService&#45;&gt;AppModule -->
<g id="edge29" class="edge">
<title>UsersService&#45;&gt;AppModule</title>
<path fill="none" stroke="#000000" d="M830,-122.2843C830,-143.3211 830,-175 830,-175 830,-175 2544.0877,-175 2544.0877,-175"/>
<polygon fill="#000000" stroke="#000000" points="2544.0877,-178.5001 2554.0877,-175 2544.0876,-171.5001 2544.0877,-178.5001"/>
</g>
<!-- AuthGuard -->
<g id="node31" class="node">
<title>AuthGuard</title>
<ellipse fill="#fdb462" stroke="#000000" cx="696" cy="-104" rx="54.4566" ry="18"/>
<text text-anchor="middle" x="696" y="-99.8" font-family="Times,serif" font-size="14.00" fill="#000000">AuthGuard</text>
</g>
<!-- AuthGuard&#45;&gt;AppModule -->
<g id="edge30" class="edge">
<title>AuthGuard&#45;&gt;AppModule</title>
<path fill="none" stroke="#000000" d="M696,-122.0449C696,-143.6623 696,-177 696,-177 696,-177 2544.1015,-177 2544.1015,-177"/>
<polygon fill="#000000" stroke="#000000" points="2544.1015,-180.5001 2554.1015,-177 2544.1014,-173.5001 2544.1015,-180.5001"/>
</g>
<!-- TypesService -->
<g id="node32" class="node">
<title>TypesService</title>
<ellipse fill="#fdb462" stroke="#000000" cx="560" cy="-104" rx="63.6813" ry="18"/>
<text text-anchor="middle" x="560" y="-99.8" font-family="Times,serif" font-size="14.00" fill="#000000">TypesService</text>
</g>
<!-- TypesService&#45;&gt;AppModule -->
<g id="edge31" class="edge">
<title>TypesService&#45;&gt;AppModule</title>
<path fill="none" stroke="#000000" d="M560,-122.1554C560,-144.3519 560,-179 560,-179 560,-179 2543.9426,-179 2543.9426,-179"/>
<polygon fill="#000000" stroke="#000000" points="2543.9426,-182.5001 2553.9426,-179 2543.9426,-175.5001 2543.9426,-182.5001"/>
</g>
<!-- EventService -->
<g id="node33" class="node">
<title>EventService</title>
<ellipse fill="#fdb462" stroke="#000000" cx="416" cy="-104" rx="62.5373" ry="18"/>
<text text-anchor="middle" x="416" y="-99.8" font-family="Times,serif" font-size="14.00" fill="#000000">EventService</text>
</g>
<!-- EventService&#45;&gt;AppModule -->
<g id="edge32" class="edge">
<title>EventService&#45;&gt;AppModule</title>
<path fill="none" stroke="#000000" d="M416,-122.2479C416,-145.0179 416,-181 416,-181 416,-181 2543.916,-181 2543.916,-181"/>
<polygon fill="#000000" stroke="#000000" points="2543.916,-184.5001 2553.916,-181 2543.916,-177.5001 2543.916,-184.5001"/>
</g>
<!-- MapService -->
<g id="node34" class="node">
<title>MapService</title>
<ellipse fill="#fdb462" stroke="#000000" cx="278" cy="-104" rx="57.8829" ry="18"/>
<text text-anchor="middle" x="278" y="-99.8" font-family="Times,serif" font-size="14.00" fill="#000000">MapService</text>
</g>
<!-- MapService&#45;&gt;AppModule -->
<g id="edge33" class="edge">
<title>MapService&#45;&gt;AppModule</title>
<path fill="none" stroke="#000000" d="M278,-122.3228C278,-145.6602 278,-183 278,-183 278,-183 2544.2869,-183 2544.2869,-183"/>
<polygon fill="#000000" stroke="#000000" points="2544.2869,-186.5001 2554.2869,-183 2544.2869,-179.5001 2544.2869,-186.5001"/>
</g>
<!-- CheckTokenService -->
<g id="node35" class="node">
<title>CheckTokenService</title>
<ellipse fill="#fdb462" stroke="#000000" cx="113" cy="-104" rx="89.1684" ry="18"/>
<text text-anchor="middle" x="113" y="-99.8" font-family="Times,serif" font-size="14.00" fill="#000000">CheckTokenService</text>
</g>
<!-- CheckTokenService&#45;&gt;AppModule -->
<g id="edge34" class="edge">
<title>CheckTokenService&#45;&gt;AppModule</title>
<path fill="none" stroke="#000000" d="M113,-122.3802C113,-146.2785 113,-185 113,-185 113,-185 2544.2033,-185 2544.2033,-185"/>
<polygon fill="#000000" stroke="#000000" points="2544.2033,-188.5001 2554.2033,-185 2544.2033,-181.5001 2544.2033,-188.5001"/>
</g>
</g>
</svg>
